<mxfile host="app.diagrams.net" agent="Mozilla/5.0 (Windows NT 10.0; Win64; x64) AppleWebKit/537.36 (KHTML, like Gecko) Chrome/127.0.0.0 Safari/537.36" version="24.7.5">
  <diagram name="Page-1" id="55a83fd1-7818-8e21-69c5-c3457e3827bb">
    <mxGraphModel dx="2266" dy="810" grid="1" gridSize="10" guides="1" tooltips="1" connect="1" arrows="1" fold="1" page="1" pageScale="1" pageWidth="1100" pageHeight="850" background="none" math="0" shadow="0">
      <root>
        <mxCell id="0" />
        <mxCell id="1" parent="0" />
        <mxCell id="69ecfefc5c41e42c-18" style="edgeStyle=none;rounded=0;html=1;labelBackgroundColor=none;endArrow=none;strokeWidth=2;fontFamily=Verdana;fontSize=22" parent="1" edge="1">
          <mxGeometry relative="1" as="geometry">
            <mxPoint x="510" y="465" as="sourcePoint" />
            <mxPoint x="510" y="370" as="targetPoint" />
          </mxGeometry>
        </mxCell>
        <mxCell id="69ecfefc5c41e42c-19" style="edgeStyle=none;rounded=0;html=1;labelBackgroundColor=none;endArrow=none;strokeWidth=2;fontFamily=Verdana;fontSize=22" parent="1" target="oUDDlCBdZkCjQiqVzqJV-11" edge="1">
          <mxGeometry relative="1" as="geometry">
            <mxPoint x="510" y="290" as="sourcePoint" />
            <mxPoint x="510" y="160" as="targetPoint" />
          </mxGeometry>
        </mxCell>
        <mxCell id="oUDDlCBdZkCjQiqVzqJV-7" value="" style="image;html=1;image=img/lib/clip_art/networking/Router_Icon_128x128.png" vertex="1" parent="1">
          <mxGeometry x="470" y="460" width="80" height="80" as="geometry" />
        </mxCell>
        <mxCell id="oUDDlCBdZkCjQiqVzqJV-8" value="&lt;b&gt;&lt;font style=&quot;font-size: 18px;&quot;&gt;TG等境外服务&lt;/font&gt;&lt;/b&gt;" style="text;html=1;align=center;verticalAlign=middle;resizable=0;points=[];autosize=1;strokeColor=none;fillColor=none;" vertex="1" parent="1">
          <mxGeometry x="440" y="530" width="140" height="40" as="geometry" />
        </mxCell>
        <mxCell id="oUDDlCBdZkCjQiqVzqJV-9" value="" style="image;html=1;image=img/lib/clip_art/networking/Firewall-page1_128x128.png" vertex="1" parent="1">
          <mxGeometry x="470" y="290" width="80" height="80" as="geometry" />
        </mxCell>
        <mxCell id="oUDDlCBdZkCjQiqVzqJV-10" value="&lt;b&gt;&lt;font style=&quot;font-size: 18px;&quot;&gt;防火墙&lt;/font&gt;&lt;/b&gt;" style="text;html=1;align=center;verticalAlign=middle;resizable=0;points=[];autosize=1;strokeColor=none;fillColor=none;" vertex="1" parent="1">
          <mxGeometry x="540" y="310" width="80" height="40" as="geometry" />
        </mxCell>
        <mxCell id="oUDDlCBdZkCjQiqVzqJV-11" value="" style="image;html=1;image=img/lib/clip_art/people/Suit_Man_128x128.png" vertex="1" parent="1">
          <mxGeometry x="470" y="120" width="80" height="80" as="geometry" />
        </mxCell>
        <mxCell id="oUDDlCBdZkCjQiqVzqJV-14" value="&lt;b&gt;&lt;font style=&quot;font-size: 18px;&quot;&gt;用户&lt;/font&gt;&lt;/b&gt;" style="text;html=1;align=center;verticalAlign=middle;resizable=0;points=[];autosize=1;strokeColor=none;fillColor=none;" vertex="1" parent="1">
          <mxGeometry x="480" y="90" width="60" height="40" as="geometry" />
        </mxCell>
        <mxCell id="oUDDlCBdZkCjQiqVzqJV-15" value="" style="endArrow=classic;startArrow=classic;html=1;rounded=0;fontStyle=1;fontSize=18;strokeWidth=2;" edge="1" parent="1">
          <mxGeometry width="50" height="50" relative="1" as="geometry">
            <mxPoint x="340" y="310" as="sourcePoint" />
            <mxPoint x="475" y="191" as="targetPoint" />
          </mxGeometry>
        </mxCell>
        <mxCell id="oUDDlCBdZkCjQiqVzqJV-16" value="" style="image;html=1;image=img/lib/clip_art/computers/Server_Tower_128x128.png" vertex="1" parent="1">
          <mxGeometry x="840" y="130" width="80" height="80" as="geometry" />
        </mxCell>
        <mxCell id="oUDDlCBdZkCjQiqVzqJV-17" value="" style="image;html=1;image=img/lib/clip_art/computers/Server_Tower_128x128.png" vertex="1" parent="1">
          <mxGeometry x="290" y="310" width="80" height="80" as="geometry" />
        </mxCell>
        <mxCell id="oUDDlCBdZkCjQiqVzqJV-18" value="" style="endArrow=classic;startArrow=classic;html=1;rounded=0;fontStyle=1;fontSize=18;strokeWidth=2;" edge="1" parent="1">
          <mxGeometry width="50" height="50" relative="1" as="geometry">
            <mxPoint x="350" y="400" as="sourcePoint" />
            <mxPoint x="460" y="500" as="targetPoint" />
          </mxGeometry>
        </mxCell>
        <mxCell id="oUDDlCBdZkCjQiqVzqJV-19" value="&lt;b&gt;&lt;font style=&quot;font-size: 18px;&quot;&gt;贾境外服务器&lt;/font&gt;&lt;/b&gt;" style="text;html=1;align=center;verticalAlign=middle;resizable=0;points=[];autosize=1;strokeColor=none;fillColor=none;" vertex="1" parent="1">
          <mxGeometry x="170" y="330" width="130" height="40" as="geometry" />
        </mxCell>
        <mxCell id="oUDDlCBdZkCjQiqVzqJV-21" value="" style="endArrow=classic;startArrow=classic;html=1;rounded=0;fontStyle=1;fontSize=18;strokeWidth=2;entryX=0;entryY=0.5;entryDx=0;entryDy=0;exitX=1;exitY=0.625;exitDx=0;exitDy=0;exitPerimeter=0;" edge="1" parent="1" source="oUDDlCBdZkCjQiqVzqJV-11" target="oUDDlCBdZkCjQiqVzqJV-16">
          <mxGeometry width="50" height="50" relative="1" as="geometry">
            <mxPoint x="590" y="169.5" as="sourcePoint" />
            <mxPoint x="740" y="170" as="targetPoint" />
          </mxGeometry>
        </mxCell>
        <mxCell id="oUDDlCBdZkCjQiqVzqJV-22" value="&lt;span style=&quot;font-size: 18px;&quot;&gt;&lt;b&gt;专线之境内服务器&lt;/b&gt;&lt;/span&gt;" style="text;html=1;align=center;verticalAlign=middle;resizable=0;points=[];autosize=1;strokeColor=none;fillColor=none;" vertex="1" parent="1">
          <mxGeometry x="910" y="150" width="170" height="40" as="geometry" />
        </mxCell>
        <mxCell id="oUDDlCBdZkCjQiqVzqJV-25" value="" style="endArrow=classic;startArrow=classic;html=1;rounded=0;fontStyle=1;fontSize=18;strokeWidth=2;fillColor=#f8cecc;strokeColor=#b85450;" edge="1" parent="1">
          <mxGeometry width="50" height="50" relative="1" as="geometry">
            <mxPoint x="880" y="320" as="sourcePoint" />
            <mxPoint x="880" y="220" as="targetPoint" />
          </mxGeometry>
        </mxCell>
        <mxCell id="oUDDlCBdZkCjQiqVzqJV-26" value="&lt;b&gt;&lt;font style=&quot;font-size: 18px;&quot;&gt;专线：内网连接&lt;/font&gt;&lt;/b&gt;" style="text;html=1;align=center;verticalAlign=middle;resizable=0;points=[];autosize=1;strokeColor=none;fillColor=none;" vertex="1" parent="1">
          <mxGeometry x="880" y="250" width="150" height="40" as="geometry" />
        </mxCell>
        <mxCell id="oUDDlCBdZkCjQiqVzqJV-27" value="" style="image;html=1;image=img/lib/clip_art/computers/Server_Tower_128x128.png" vertex="1" parent="1">
          <mxGeometry x="840" y="320" width="80" height="80" as="geometry" />
        </mxCell>
        <mxCell id="oUDDlCBdZkCjQiqVzqJV-28" value="&lt;span style=&quot;font-size: 18px;&quot;&gt;&lt;b&gt;专线之境外服务器&lt;/b&gt;&lt;/span&gt;" style="text;html=1;align=center;verticalAlign=middle;resizable=0;points=[];autosize=1;strokeColor=none;fillColor=none;" vertex="1" parent="1">
          <mxGeometry x="910" y="350" width="170" height="40" as="geometry" />
        </mxCell>
        <mxCell id="oUDDlCBdZkCjQiqVzqJV-29" value="" style="image;html=1;image=img/lib/clip_art/computers/Server_Tower_128x128.png" vertex="1" parent="1">
          <mxGeometry x="840" y="460" width="80" height="80" as="geometry" />
        </mxCell>
        <mxCell id="oUDDlCBdZkCjQiqVzqJV-30" value="" style="endArrow=classic;startArrow=classic;html=1;rounded=0;fontStyle=1;fontSize=18;strokeWidth=2;exitX=0.5;exitY=0;exitDx=0;exitDy=0;" edge="1" parent="1" source="oUDDlCBdZkCjQiqVzqJV-29">
          <mxGeometry width="50" height="50" relative="1" as="geometry">
            <mxPoint x="750" y="529" as="sourcePoint" />
            <mxPoint x="880" y="410" as="targetPoint" />
          </mxGeometry>
        </mxCell>
        <mxCell id="oUDDlCBdZkCjQiqVzqJV-31" value="&lt;b&gt;&lt;font style=&quot;font-size: 18px;&quot;&gt;贾境外服务器&lt;/font&gt;&lt;/b&gt;" style="text;html=1;align=center;verticalAlign=middle;resizable=0;points=[];autosize=1;strokeColor=none;fillColor=none;" vertex="1" parent="1">
          <mxGeometry x="910" y="480" width="130" height="40" as="geometry" />
        </mxCell>
        <mxCell id="oUDDlCBdZkCjQiqVzqJV-32" value="" style="endArrow=classic;startArrow=classic;html=1;rounded=0;fontStyle=1;fontSize=18;strokeWidth=2;entryX=0;entryY=0.5;entryDx=0;entryDy=0;exitX=1;exitY=0.625;exitDx=0;exitDy=0;exitPerimeter=0;" edge="1" parent="1">
          <mxGeometry width="50" height="50" relative="1" as="geometry">
            <mxPoint x="560" y="499.5" as="sourcePoint" />
            <mxPoint x="850" y="499.5" as="targetPoint" />
          </mxGeometry>
        </mxCell>
      </root>
    </mxGraphModel>
  </diagram>
</mxfile>
